<svg xmlns="http://www.w3.org/2000/svg" width="177.139" height="175.454" viewBox="0 0 177.139 175.454"><defs><style>.a{fill:#2d3446}</style></defs><path class="a" d="M21.006 164.572h98.98v-47.8h-98.98zm2.723-45.079h93.534v42.355H23.729z"/><path class="a" d="M93.73 121.531v-.76h-1.362v.749a5 5 0 0 0-4.286 4.289h-16.9v-5.038H69.82v5.038H48.638v-5.038h-1.362v5.038H28.348v1.362h18.928v7.965a4.754 4.754 0 0 0-4.047 4.044H28.348v1.363h14.885a4.635 4.635 0 0 0 .939 2.206l-6.35 6.495a4.926 4.926 0 0 0-7.853 3.309h-1.62v1.362h1.626a4.917 4.917 0 0 0 4.883 4.3 5.023 5.023 0 0 0 4.932-4.3h7.486v6.672h1.362v-6.672h17.251a4.656 4.656 0 0 0 3.935 3.938v2.734h1.362v-2.744a4.707 4.707 0 0 0 3.935-3.927h17.251v6.672h1.362v-6.672h16.856v-1.362H93.73v-12.011h18.926v-1.362H93.73v-7.725a5.06 5.06 0 0 0 4.289-4.283h14.637v-1.362H98.019a5.063 5.063 0 0 0-4.289-4.28zm-5.642 5.64a4.93 4.93 0 0 0 1.242 2.671l-7.867 9.338h-10.28v-12.01zm-15.176 22.161a4.428 4.428 0 0 0-1.729-.656v-8.133h9.133zm-6.015.964l-14.566-8.619a4.561 4.561 0 0 0 .319-1.136h17.172v8.093a4.494 4.494 0 0 0-2.928 1.661zm2.925-23.125v12.009h-17.14a4.723 4.723 0 0 0-4.044-4.036v-7.973zM47.95 136.43a3.42 3.42 0 0 1 3.437 3.431 3.29 3.29 0 0 1-.5 1.751 3.417 3.417 0 0 1-2.925 1.68h-.03a3.194 3.194 0 0 1-2.366-1.016 3.312 3.312 0 0 1-1.038-2.443 3.413 3.413 0 0 1 3.421-3.404zm-13.093 20.423a3.622 3.622 0 0 1 0-7.244 3.663 3.663 0 0 1 2.56 1.043 3.461 3.461 0 0 1 1.089 2.571 3.674 3.674 0 0 1-3.65 3.629zm4.945-4.3a4.816 4.816 0 0 0-1-2.366l6.339-6.481a4.544 4.544 0 0 0 2.135.888v7.96zm8.837-7.987a4.72 4.72 0 0 0 2.993-1.718l14.58 8.627a4.245 4.245 0 0 0-.3 1.078H48.635zm21.855 11.987l.008.681-.027-.681a3.312 3.312 0 0 1-3.295-3.322 3.154 3.154 0 0 1 .485-1.71 3.216 3.216 0 0 1 2.838-1.612 3.429 3.429 0 0 1 3.322 3.322 3.355 3.355 0 0 1-3.331 3.322zm21.875-4H75.112a4.413 4.413 0 0 0-1.125-2.383l8.107-9.627h10.272zm-9.125-13.371l7.118-8.447a4.855 4.855 0 0 0 2.007.738v7.709zm9.8-9.014l.008.681-.027-.681a3.545 3.545 0 0 1-2.342-.877 3.62 3.62 0 0 1-1.307-2.8 3.676 3.676 0 0 1 7.352 0 3.714 3.714 0 0 1-3.687 3.675z"/><path class="a" d="M152.737 34.156c1.544-16.589-16.649-27.994-30.842-19.568a29 29 0 0 0-53.67 19.726 24.009 24.009 0 0 0-24.642 14.514H7.11A7.129 7.129 0 0 0 0 55.96v112.384a7.117 7.117 0 0 0 7.11 7.11h126.514a7.117 7.117 0 0 0 7.107-7.11V82.102h12.445a23.975 23.975 0 1 0-.438-47.946zM2.723 55.956a4.4 4.4 0 0 1 4.384-4.409h35.469a24.466 24.466 0 0 0 1.108 16.2H2.723zm135.285 112.388a4.391 4.391 0 0 1-4.384 4.387H7.11a4.391 4.391 0 0 1-4.387-4.387v-97.87H45.1a24.226 24.226 0 0 0 20.527 11.628h72.381zm15.168-88.965H65.627a21.236 21.236 0 1 1 4.1-42.067l2.11.4-.534-2.08a26.285 26.285 0 0 1 25.395-32.91c17.9 0 23.947 15.546 24.2 15.821a18.477 18.477 0 0 1 11.315-4.057 17.881 17.881 0 0 1 17.616 20.886l-.321 1.751c2.059-.172 2.832-.253 3.674-.253a21.254 21.254 0 0 1 0 42.508z"/><path d="M84.824 31.974h-2.723v6.112h-2.707v2.723h2.707v27.568h2.723V40.809h2.708v-2.723h-2.708zm17.288 0h-2.723v28.147h-2.708v2.723h2.708v5.533h2.723v-5.533h2.709v-2.723h-2.709zm17.289 0h-2.728v10.928h-2.7v2.723h2.7v22.752h2.723V45.625h2.709v-2.723h-2.709zm17.287 0h-2.723v18.49h-2.708v2.723h2.708v15.19h2.723v-15.19h2.707v-2.723h-2.707z" fill="#d8006b"/><path class="a" d="M22.368 108.454h52.138v2.723H22.368zm0-8.602h52.138v2.723H22.368zm0-8.601h82.021v2.723H22.368z"/></svg>