<svg xmlns="http://www.w3.org/2000/svg" width="177.003" height="161.154" viewBox="0 0 177.003 161.154"><defs><style>.a{fill:#2d3446}</style></defs><path class="a" d="M162.432 66.009a14.071 14.071 0 0 0-4.145.684l-23.261-40.3a14.518 14.518 0 1 0-22.806-13.215H64.862a14.505 14.505 0 1 0-22.885 13.155L18.714 66.692a14.237 14.237 0 0 0-4.174-.684 14.555 14.555 0 0 0 0 29.11 14.745 14.745 0 0 0 4.145-.664l23.318 40.335a14.521 14.521 0 1 0 22.861 13.158h47.358a14.5 14.5 0 1 0 22.806-13.185l23.286-40.308a14.527 14.527 0 1 0 4.115-28.446zM126.625 2.723a11.832 11.832 0 1 1-11.821 11.818 11.83 11.83 0 0 1 11.821-11.818zM38.638 14.541a11.818 11.818 0 1 1 11.818 11.846 11.832 11.832 0 0 1-11.818-11.845zM2.723 80.577a11.842 11.842 0 0 1 11.816-11.844 11.56 11.56 0 0 1 4.327.833c12.063 4.692 8.657 22.831-4.327 22.831a11.83 11.83 0 0 1-11.816-11.82zm47.734 77.856a11.832 11.832 0 1 1 11.818-11.846 11.847 11.847 0 0 1-11.818 11.846zm87.984-11.846a11.818 11.818 0 1 1-5.912-10.233 11.844 11.844 0 0 1 5.912 10.232zm-5.751-13.221a14.62 14.62 0 0 0-20.543 11.859H64.936c-.863-9.248-11.04-16.279-20.6-11.835L21.263 93.477c10.459-5.457 10.184-20.462.022-25.8l23.021-39.932c9.457 4.477 19.759-2.489 20.628-11.843h47.21c.88 9.471 11.135 16.222 20.543 11.889l23.027 39.884c-10.509 5.452-10.225 20.464.025 25.8zm29.742-40.969c-15.838 0-15.527-23.664 0-23.664a11.832 11.832 0 1 1 0 23.664z"/><path class="a" d="M104.922 85.915c-6.421-2.494-5.008-10.067-5.138-10.34a26.154 26.154 0 0 0 5.983-21.946l.177.027c-.46-1.021-1.634-11.159-10.778-16.622-13.708-8.257-29.431 4.4-29.3 20.181-.008 1.383 0 1.018 0 1.912l.019-.005a25.708 25.708 0 0 0 6.353 16.429c-.131.272 1.353 10.917-8.006 10.917a15.837 15.837 0 0 0-15.819 15.819v11.769a1.383 1.383 0 0 0 .109.534c.673 1.609-2.165.479 73.769.836 2.445 0 .918-3.573 1.362-13.131a15.733 15.733 0 0 0-4.651-11.189c-5.663-5.717-11.041-4.017-14.08-5.191zm-7.861-7.772a10.713 10.713 0 0 0 .25 2.581v1.313a11.163 11.163 0 0 1-22.327 0v-3.908a17.649 17.649 0 0 0 22.077.014zm-25.167 7.821c.253-.261.5-.531.722-.811 3.262 14.168 23.441 14.318 27 .289 5.337 6.274 10.974 1.1 17.461 7.589 5.71 5.708 3.251 12.27 3.837 19.664H51.138v-10.4a13.119 13.119 0 0 1 13.1-13.1 11.98 11.98 0 0 0 7.655-3.23zm24.7-11.012a13.681 13.681 0 0 1-1.269 1.07 14.4 14.4 0 0 1-.686.5c-11.826 8.167-26.041-2.829-26.066-18.25 10.835-3.469 15.712-8.463 17.621-11.135 3.894 3.5 13.177 5.405 16.731 6.026 1.6 7.879-.5 16.381-6.333 21.789zm5.55-24.7c-18.12-3.551-14.552-7.584-16.2-8.8l-1.174 2.8c-.027.068-2.93 6.663-16 11.116 2.386-20.882 26.586-25.206 33.372-5.115z"/><path d="M104.353 38.472l5.7-7.807 2.2 1.607-5.7 7.807zm-43.451-6.196l2.199-1.607 5.7 7.802-2.199 1.606zm.002 97.637l5.7-7.807 2.2 1.607-5.7 7.807zm43.449-6.196l2.199-1.607 5.7 7.802-2.199 1.606zm24.307-39.299h9.968v2.723h-9.968zm-92.803 0h9.968v2.723h-9.968z" fill="#d8006b"/></svg>