<svg version="1.1" id="Layer_1" xmlns="http://www.w3.org/2000/svg" xmlns:xlink="http://www.w3.org/1999/xlink" x="0" y="0" viewBox="0 0 1346.9 243.4" xml:space="preserve"><defs><path id="SVGID_1_" d="M11.6 31.7H1337V228H11.6z"/></defs><clipPath id="SVGID_2_"><use xlink:href="#SVGID_1_" overflow="visible"/></clipPath><path d="M1274.6 140.9c1.2 2.1 2.7 3.7 4.6 5 1.9 1.3 4 2.2 6.4 2.9 2.4.6 4.9.9 7.6.9 1.9 0 3.8-.2 5.9-.7 2.1-.4 3.9-1.1 5.6-2.1 1.7-.9 3.1-2.2 4.2-3.7 1.1-1.6 1.7-3.5 1.7-5.9 0-4-2.7-7-7.9-8.9-5.3-2-12.6-4-22.1-6-3.9-.9-7.6-1.9-11.3-3.1-3.7-1.2-6.9-2.7-9.8-4.7-2.9-1.9-5.2-4.3-6.9-7.3-1.7-2.9-2.6-6.5-2.6-10.7 0-6.2 1.2-11.3 3.6-15.3 2.4-4 5.6-7.1 9.6-9.4 4-2.3 8.4-3.9 13.4-4.8 5-.9 10.1-1.4 15.3-1.4 5.2 0 10.3.5 15.2 1.5 4.9 1 9.3 2.7 13.1 5 3.9 2.4 7.1 5.5 9.6 9.4 2.5 3.9 4.1 8.9 4.6 14.8h-25.2c-.4-5.1-2.3-8.5-5.8-10.4-3.5-1.8-7.6-2.7-12.3-2.7-1.5 0-3.1.1-4.8.3-1.8.2-3.3.6-4.8 1.2-1.4.6-2.6 1.5-3.6 2.7-1 1.2-1.5 2.8-1.5 4.7 0 2.4.9 4.3 2.6 5.8 1.8 1.5 4 2.7 6.8 3.6 2.8.9 6 1.8 9.6 2.5 3.6.7 7.3 1.5 11 2.4 3.8.9 7.6 1.9 11.3 3.2 3.7 1.2 6.9 2.9 9.8 4.9 2.9 2.1 5.2 4.6 6.9 7.6 1.7 3 2.6 6.8 2.6 11.3 0 6.3-1.3 11.6-3.8 15.9-2.6 4.3-5.9 7.7-10 10.3-4.1 2.6-8.8 4.5-14.1 5.5-5.3 1.1-10.7 1.6-16.1 1.6-5.6 0-11.1-.6-16.4-1.7-5.3-1.1-10.1-3-14.3-5.6-4.2-2.6-7.6-6-10.3-10.3-2.7-4.3-4.1-9.7-4.4-16.1h25.2c0 3.3.6 5.7 1.8 7.8m-156.1-72.4v13.1h.4c3.5-5 7.7-8.8 12.6-11.6 4.9-2.7 10.5-4.1 16.9-4.1 6.1 0 11.6 1.2 16.7 3.5 5 2.4 8.8 6.5 11.5 12.5 2.9-4.2 6.7-8 11.7-11.2 4.9-3.2 10.7-4.9 17.4-4.9 5.1 0 9.8.6 14.2 1.9 4.4 1.3 8.1 3.2 11.2 6 3.1 2.7 5.5 6.3 7.3 10.7 1.7 4.4 2.6 9.7 2.6 15.9v64.5h-26.5v-54.6c0-3.2-.1-6.3-.4-9.1-.3-2.9-.9-5.3-2-7.5-1.1-2.1-2.8-3.8-4.9-5-2.2-1.2-5.1-1.9-8.9-1.9-3.7 0-6.7.7-9 2.1-2.3 1.4-4.1 3.3-5.4 5.6-1.3 2.3-2.2 4.9-2.6 7.8-.4 2.9-.7 5.9-.7 8.9v53.7h-26.5v-54.1c0-2.9-.1-5.7-.2-8.5s-.6-5.4-1.6-7.7c-.9-2.4-2.5-4.3-4.7-5.7-2.2-1.4-5.4-2.1-9.6-2.1-1.2 0-2.9.3-4.9.8-2.1.6-4 1.6-6 3.2-1.9 1.6-3.6 3.8-4.9 6.7-1.4 2.9-2.1 6.7-2.1 11.5v55.9h-26.5V68.5h24.9zm-95.1 73.2c4 3.9 9.7 5.8 17.1 5.8 5.3 0 9.9-1.3 13.8-4 3.9-2.7 6.2-5.5 7.1-8.5h23.3c-3.7 11.6-9.4 19.8-17.2 24.8-7.7 5-17 7.5-28 7.5-7.6 0-14.4-1.2-20.5-3.6-6.1-2.4-11.3-5.9-15.5-10.4-4.2-4.5-7.5-9.8-9.8-16-2.3-6.2-3.4-13.1-3.4-20.5 0-7.2 1.2-13.9 3.5-20.1 2.4-6.2 5.7-11.6 10.1-16.1 4.3-4.5 9.5-8.1 15.6-10.7 6-2.6 12.7-3.9 20-3.9 8.2 0 15.4 1.6 21.4 4.7 6.1 3.2 11.1 7.4 15 12.8 3.9 5.4 6.7 11.4 8.5 18.3 1.7 6.8 2.4 14 1.9 21.4h-69.5c.5 8.5 2.7 14.7 6.6 18.5m29.9-50.7c-3.2-3.5-8-5.2-14.4-5.2-4.2 0-7.7.7-10.5 2.2-2.8 1.4-5 3.2-6.7 5.3-1.7 2.1-2.9 4.4-3.5 6.7-.7 2.4-1.1 4.5-1.2 6.3h43.1c-1.4-6.7-3.6-11.8-6.8-15.3m-61.6-22.5v17.7h-19.4v47.7c0 4.5.8 7.5 2.2 9 1.5 1.5 4.5 2.2 8.9 2.2 1.5 0 2.9-.1 4.3-.2s2.7-.3 3.9-.6v20.5c-2.2.4-4.7.6-7.5.7-2.7.1-5.4.2-8 .2-4.1 0-8-.3-11.6-.8-3.7-.6-6.9-1.7-9.7-3.3-2.8-1.6-5-3.9-6.6-6.9-1.6-3-2.4-6.9-2.4-11.7V86.2h-16V68.5h16V39.6h26.5v28.9h19.4zm-121.4 72.4c1.2 2.1 2.7 3.7 4.6 5 1.9 1.3 4 2.2 6.4 2.9 2.4.6 4.9.9 7.5.9 1.9 0 3.8-.2 5.9-.7 2.1-.4 3.9-1.1 5.6-2.1 1.7-.9 3.1-2.2 4.2-3.7 1.1-1.6 1.7-3.5 1.7-5.9 0-4-2.6-7-7.9-8.9-5.3-2-12.6-4-22.1-6-3.9-.9-7.6-1.9-11.3-3.1-3.7-1.2-6.9-2.7-9.8-4.7-2.9-1.9-5.2-4.3-6.9-7.3-1.7-2.9-2.6-6.5-2.6-10.7 0-6.2 1.2-11.3 3.6-15.3 2.4-4 5.6-7.1 9.6-9.4 4-2.3 8.5-3.9 13.4-4.8 5-.9 10.1-1.4 15.3-1.4 5.2 0 10.3.5 15.2 1.5 4.9 1 9.3 2.7 13.1 5 3.9 2.4 7.1 5.5 9.6 9.4 2.6 3.9 4.1 8.9 4.6 14.8h-25.2c-.4-5.1-2.3-8.5-5.8-10.4-3.5-1.8-7.6-2.7-12.3-2.7-1.5 0-3.1.1-4.9.3-1.7.2-3.3.6-4.8 1.2-1.4.6-2.6 1.5-3.6 2.7-1 1.2-1.5 2.8-1.5 4.7 0 2.4.9 4.3 2.6 5.8 1.7 1.5 4 2.7 6.8 3.6 2.8.9 6 1.8 9.6 2.5 3.6.7 7.3 1.5 11 2.4 3.9.9 7.6 1.9 11.3 3.2 3.7 1.2 6.9 2.9 9.8 4.9 2.9 2.1 5.2 4.6 6.9 7.6 1.7 3 2.6 6.8 2.6 11.3 0 6.3-1.3 11.6-3.8 15.9-2.6 4.3-5.9 7.7-10 10.3-4.1 2.6-8.8 4.5-14.1 5.5-5.3 1.1-10.7 1.6-16.1 1.6-5.6 0-11.1-.6-16.4-1.7-5.3-1.1-10.1-3-14.3-5.6-4.2-2.6-7.6-6-10.2-10.3-2.7-4.3-4.1-9.7-4.4-16.1h25.2c.1 3.3.7 5.7 1.9 7.8m-74.1 52.7c-5.1 3.4-12.2 5-21.2 5-2.7 0-5.4-.1-8.1-.3-2.7-.2-5.4-.4-8.1-.7v-21.8c2.5.2 5 .5 7.6.8 2.6.2 5.2.3 7.8.2 3.5-.4 6.1-1.7 7.7-4.1 1.7-2.4 2.5-5 2.5-7.8 0-2.1-.4-4.1-1.1-6l-33.7-90.4h28.1l21.8 66h.4l21.1-66h27.4l-40.3 108.3c-2.8 7.8-6.8 13.4-11.9 16.8m-104.1-52.7c1.2 2.1 2.7 3.7 4.6 5 1.9 1.3 4 2.2 6.4 2.9 2.4.6 4.9.9 7.6.9 1.9 0 3.8-.2 5.9-.7 2.1-.4 3.9-1.1 5.6-2.1 1.7-.9 3.1-2.2 4.2-3.7 1.1-1.6 1.7-3.5 1.7-5.9 0-4-2.6-7-7.9-8.9-5.3-2-12.6-4-22.1-6-3.9-.9-7.6-1.9-11.3-3.1-3.7-1.2-6.9-2.7-9.8-4.7-2.9-1.9-5.2-4.3-6.9-7.3-1.7-2.9-2.6-6.5-2.6-10.7 0-6.2 1.2-11.3 3.6-15.3 2.4-4 5.6-7.1 9.6-9.4 4-2.3 8.5-3.9 13.4-4.8 5-.9 10.1-1.4 15.3-1.4 5.2 0 10.3.5 15.2 1.5 4.9 1 9.3 2.7 13.2 5 3.8 2.4 7.1 5.5 9.6 9.4 2.5 3.9 4.1 8.9 4.6 14.8h-25.2c-.4-5.1-2.3-8.5-5.8-10.4-3.5-1.8-7.6-2.7-12.3-2.7-1.5 0-3.1.1-4.8.3-1.7.2-3.3.6-4.8 1.2-1.4.6-2.6 1.5-3.6 2.7-1 1.2-1.5 2.8-1.5 4.7 0 2.4.9 4.3 2.6 5.8 1.7 1.5 4 2.7 6.8 3.6 2.8.9 6 1.8 9.6 2.5 3.6.7 7.3 1.5 11 2.4 3.8.9 7.6 1.9 11.3 3.2 3.7 1.2 6.9 2.9 9.8 4.9 2.9 2.1 5.2 4.6 6.9 7.6 1.7 3 2.6 6.8 2.6 11.3 0 6.3-1.3 11.6-3.8 15.9-2.6 4.3-5.9 7.7-10 10.3-4.1 2.6-8.8 4.5-14.1 5.5-5.3 1.1-10.7 1.6-16.1 1.6-5.6 0-11.1-.6-16.4-1.7-5.3-1.1-10.1-3-14.3-5.6-4.2-2.6-7.6-6-10.2-10.3-2.7-4.3-4.1-9.7-4.4-16.1h25.2c-.2 3.3.4 5.7 1.6 7.8" clip-path="url(#SVGID_2_)" fill="#e6007e"/><path d="M578.5 141.7c4 3.9 9.7 5.8 17.2 5.8 5.3 0 9.9-1.3 13.8-4 3.8-2.7 6.2-5.5 7.1-8.5h23.3c-3.7 11.6-9.4 19.8-17.2 24.8-7.7 5-17 7.5-28 7.5-7.6 0-14.4-1.2-20.5-3.6s-11.2-5.9-15.5-10.4c-4.2-4.5-7.5-9.8-9.8-16-2.3-6.2-3.4-13.1-3.4-20.5 0-7.2 1.2-13.9 3.5-20.1 2.4-6.2 5.7-11.6 10.1-16.1 4.3-4.5 9.5-8.1 15.6-10.7 6-2.6 12.7-3.9 20-3.9 8.2 0 15.4 1.6 21.4 4.7 6.1 3.2 11.1 7.4 15 12.8 3.9 5.3 6.7 11.4 8.5 18.3 1.7 6.8 2.4 14 1.9 21.4H572c.3 8.5 2.5 14.7 6.5 18.5M608.4 91c-3.2-3.5-8-5.2-14.4-5.2-4.2 0-7.7.7-10.5 2.1-2.8 1.4-5 3.2-6.7 5.3-1.7 2.1-2.9 4.4-3.5 6.7-.7 2.4-1.1 4.5-1.2 6.3H615c-1.2-6.6-3.4-11.7-6.6-15.2m-69.8 73.9h-26.5V31.7h26.5v133.2zM433.3 31.7v48.5h.4c3.2-5 7.6-8.6 13.1-10.9 5.5-2.3 11.3-3.4 17.2-3.4 4.8 0 9.6 1 14.4 3 4.7 2 9 5 12.8 9.1 3.8 4.1 6.9 9.4 9.2 15.8 2.4 6.4 3.5 14 3.5 22.8s-1.2 16.4-3.5 22.9c-2.4 6.4-5.4 11.6-9.2 15.7-3.8 4.1-8.1 7.2-12.8 9.1-4.7 2-9.5 3-14.4 3-7.1 0-13.4-1.1-19-3.4-5.6-2.2-9.8-6-12.7-11.4h-.3v12.3h-25.2V31.7h26.5zm42.8 73.3c-.9-3.7-2.2-7-4.1-9.9-1.9-2.8-4.2-5.1-7-6.8-2.8-1.7-6.2-2.5-10.2-2.5-3.9 0-7.2.8-10.1 2.5-2.9 1.7-5.2 3.9-7.1 6.8-1.9 2.9-3.2 6.2-4.1 9.9-.9 3.7-1.3 7.7-1.3 11.8 0 4 .4 7.8 1.3 11.6.9 3.7 2.2 7 4.1 9.9 1.9 2.9 4.2 5.1 7.1 6.8 2.9 1.7 6.2 2.5 10.1 2.5 4 0 7.4-.8 10.2-2.5 2.8-1.7 5.1-3.9 7-6.8 1.9-2.9 3.2-6.2 4.1-9.9.9-3.7 1.3-7.6 1.3-11.6 0-4.1-.4-8.1-1.3-11.8m-80.9 59.9h-26.5V68.5h26.5v96.4zM368.8 31.7h26.5v21.8h-26.5V31.7zm-69.3 109.2c1.2 2 2.7 3.7 4.6 5 1.9 1.3 4 2.3 6.4 2.9 2.4.6 4.9.9 7.5.9 1.9 0 3.8-.2 5.9-.7 2.1-.4 3.9-1.1 5.6-2.1 1.7-.9 3.1-2.2 4.2-3.7 1.1-1.6 1.7-3.5 1.7-5.9 0-4-2.6-7-7.9-9-5.3-2-12.6-4-22.1-6-3.9-.9-7.6-1.9-11.3-3.1-3.7-1.2-6.9-2.7-9.8-4.7-2.9-1.9-5.2-4.3-6.9-7.3-1.7-2.9-2.6-6.5-2.6-10.7 0-6.2 1.2-11.3 3.6-15.3 2.4-4 5.6-7.1 9.6-9.4 4-2.3 8.5-3.9 13.4-4.8 5-.9 10.1-1.4 15.3-1.4 5.2 0 10.3.5 15.2 1.5 4.9 1 9.3 2.7 13.1 5 3.9 2.4 7.1 5.5 9.6 9.4 2.6 3.9 4.1 8.9 4.6 14.8H334c-.4-5.1-2.3-8.5-5.8-10.3-3.5-1.8-7.6-2.7-12.3-2.7-1.5 0-3.1.1-4.8.3-1.7.2-3.3.6-4.8 1.2-1.4.6-2.6 1.5-3.6 2.7-1 1.2-1.5 2.8-1.5 4.7 0 2.4.9 4.3 2.6 5.8 1.7 1.5 4 2.7 6.8 3.6 2.8.9 6 1.8 9.6 2.5 3.6.7 7.3 1.5 11 2.4 3.9.9 7.6 1.9 11.3 3.2 3.7 1.2 6.9 2.9 9.8 4.9 2.9 2.1 5.2 4.6 6.9 7.7 1.7 3 2.6 6.8 2.6 11.3 0 6.3-1.3 11.6-3.8 15.9-2.6 4.3-5.9 7.7-10 10.4-4.1 2.6-8.8 4.4-14.1 5.5-5.3 1-10.7 1.6-16.1 1.6-5.6 0-11.1-.6-16.4-1.7-5.3-1.1-10.1-3-14.3-5.6-4.2-2.6-7.6-6.1-10.2-10.3-2.7-4.3-4.1-9.7-4.4-16.1h25.2c0 3.1.6 5.5 1.8 7.6m-33.8 24h-26.5V68.5h26.5v96.4zM239.2 31.7h26.5v21.8h-26.5V31.7zm-64.5 133.2l-33-96.4h27.8l20.3 65.8h.4l20.3-65.8h26.3l-32.6 96.4h-29.5zM74.8 68.5v13.4h.6c3.4-5.6 7.7-9.7 13-12.2s10.8-3.8 16.4-3.8c7.1 0 12.9 1 17.4 2.9 4.5 1.9 8.1 4.6 10.7 8 2.6 3.4 4.4 7.6 5.5 12.5 1.1 4.9 1.6 10.3 1.6 16.3v59.3h-26.5v-54.4c0-8-1.2-13.9-3.7-17.8-2.5-3.9-6.9-5.9-13.2-5.9-7.2 0-12.4 2.2-15.7 6.4-3.2 4.3-4.9 11.3-4.9 21.2v50.5H49.6V68.5h25.2zm-36.7 96.4H11.6V68.5h26.5v96.4zM11.6 31.7h26.5v21.8H11.6V31.7z" clip-path="url(#SVGID_2_)"/></svg>