<svg xmlns="http://www.w3.org/2000/svg" width="173.936" height="176.984" viewBox="0 0 173.936 176.984"><defs><style>.a{fill:#2d3446}.c{fill:#d8006b}</style></defs><path class="a" d="M38.382 137.333h97.1l.049-65.246h-97.15zm2.723-62.523h91.7l-.044 59.8H41.105z"/><path d="M86.898 155.36a4.674 4.674 0 0 0 4.67-4.67 4.619 4.619 0 0 0-4.67-4.667 4.669 4.669 0 0 0 0 9.338zm0-6.614a1.926 1.926 0 0 1 1.947 1.944 1.946 1.946 0 1 1-1.947-1.944z" fill="#fff"/><path class="a" d="M.526 22.039a8.616 8.616 0 0 0 8.178 5.514h14.757v9.215a10.119 10.119 0 1 0 11.345 11.383h39.667a10.126 10.126 0 0 0 8.76 8.646v6.83h-43.72a9.615 9.615 0 0 0-9.594 9.615v72.544h.016v4.79a7.736 7.736 0 0 0 7.728 7.728h35.452v7.323h-5.367a3.819 3.819 0 0 0-3.562 2.489l-1.392 3.709a3.825 3.825 0 0 0 3.565 5.158h41.065a3.818 3.818 0 0 0 3.589-5.16l-1.4-3.733a3.859 3.859 0 0 0-3.578-2.462h-5.342v-7.322h35.529a7.736 7.736 0 0 0 7.725-7.728v-4.79h.006l.044-72.544a9.617 9.617 0 0 0-9.6-9.615H85.953v-6.862a10.035 10.035 0 0 0 8.518-8.616h39.662a10.117 10.117 0 1 0 11.568-11.331v-8.167h-2.728v8.1a10.081 10.081 0 0 0-8.85 8.679H94.482a10.008 10.008 0 0 0-8.529-8.63v-8.145H83.23v8.1a10.085 10.085 0 0 0-8.766 8.67H34.815a10.127 10.127 0 0 0-8.632-8.649v-9.226h15.96a8.314 8.314 0 0 0 8.017-5.716 8.448 8.448 0 0 0-6.99-11.091 8.52 8.52 0 0 0-7.587-6.073 9.752 9.752 0 0 0-16.973.572 8.453 8.453 0 0 0-11.184 5.49 8.434 8.434 0 0 0-6.9 11.3zm105.51 146.313a1.142 1.142 0 0 1 1.04.722l1.386 3.7a1.082 1.082 0 0 1-.125 1.016 1.094 1.094 0 0 1-.912.468H66.36a1.074 1.074 0 0 1-.882-.468 1.1 1.1 0 0 1-.131-1.013l1.392-3.709a1.1 1.1 0 0 1 1.01-.719c.275.003 40.849.011 38.287.003zm-8.063-2.725H75.839v-7.322h22.134zm43.254-15.051a5.01 5.01 0 0 1-5 5.005H37.664a5.012 5.012 0 0 1-5.005-5.005v-4.785h108.565zm.049-77.334l-.041 69.821H32.642V73.244a6.887 6.887 0 0 1 6.87-6.892h94.887a6.889 6.889 0 0 1 6.874 6.892zm3.034-33.889a7.422 7.422 0 1 1-7.595 7.407 7.455 7.455 0 0 1 7.592-7.405zm-59.74 0a7.421 7.421 0 0 1 0 14.841l.025 1.362-.136-1.362a7.421 7.421 0 1 1 .112-14.841zm-52.338 7.426a7.421 7.421 0 1 1-7.415-7.426 7.365 7.365 0 0 1 7.411 7.428zM8.538 13.396h1.174l.172-1.16a5.72 5.72 0 0 1 8.7-3.973l1.473.915c.182-.289 1.155-6.465 7.211-6.465 4.711 0 6.138 3.88 6.887 4.725l.912-.06a5.761 5.761 0 0 1 5.653 4.863l.256 1.155h1.168a5.754 5.754 0 0 1 4.629 2.35 5.828 5.828 0 0 1 .792 5.264 5.674 5.674 0 0 1-5.422 3.818H8.703A5.893 5.893 0 0 1 3.082 21.1a5.711 5.711 0 0 1 5.452-7.7z"/><path class="a" d="M104.843 10.746a8.52 8.52 0 0 0-7.587-6.073 9.752 9.752 0 0 0-16.973.572 8.449 8.449 0 0 0-11.184 5.49 8.434 8.434 0 0 0-6.9 11.3 8.616 8.616 0 0 0 8.178 5.514h33.44a8.319 8.319 0 0 0 8.017-5.716 8.451 8.451 0 0 0-6.991-11.087zm4.4 10.266a5.679 5.679 0 0 1-5.422 3.818h-33.44a5.891 5.891 0 0 1-5.62-3.728 5.675 5.675 0 0 1-.359-1.988 5.741 5.741 0 0 1 5.808-5.716h1.174c.136-.272.185-6.018 5.816-6.018 2.266 0 3.527 1.277 4.531 1.8.18-.28 1.155-6.465 7.211-6.465 4.692 0 6.19 3.968 6.876 4.738l.926-.073c5.34 0 5.768 5.746 5.909 6.018h1.168a5.739 5.739 0 0 1 5.417 7.614zm57.271-10.266a8.52 8.52 0 0 0-7.587-6.073 9.752 9.752 0 0 0-16.973.572 8.449 8.449 0 0 0-11.181 5.49 8.438 8.438 0 0 0-6.9 11.3 8.614 8.614 0 0 0 8.177 5.517h33.44a8.312 8.312 0 0 0 8.017-5.713 8.45 8.45 0 0 0-6.993-11.093zm-1.027 14.081h-33.44a5.887 5.887 0 0 1-5.618-3.728 5.674 5.674 0 0 1-.36-1.988 5.741 5.741 0 0 1 5.808-5.716h1.174c.136-.272.177-6.018 5.816-6.018 2.263 0 3.5 1.266 4.529 1.8.18-.28 1.157-6.465 7.214-6.465 4.692 0 6.2 3.976 6.876 4.738l.926-.073c5.378 0 5.759 5.735 5.907 6.018h1.168a5.716 5.716 0 1 1 0 11.432z"/><path class="c" d="M63.302 92.998l1.925 1.925a30.765 30.765 0 0 1 43.461.019l1.925-1.925a33.492 33.492 0 0 0-47.311-.019z"/><path class="c" d="M68.925 98.619l1.925 1.925a22.8 22.8 0 0 1 32.212.022l1.925-1.925a25.525 25.525 0 0 0-36.062-.022z"/><path class="c" d="M74.545 104.251l1.925 1.925a14.842 14.842 0 0 1 20.965.019l1.925-1.928a17.57 17.57 0 0 0-24.815-.016zm12.426 2.815a9.607 9.607 0 1 0 9.58 9.607 9.618 9.618 0 0 0-9.58-9.607zm0 16.491a6.884 6.884 0 1 1 6.856-6.881 6.892 6.892 0 0 1-6.856 6.881z"/></svg>