<svg xmlns="http://www.w3.org/2000/svg" width="177.003" height="161.154" viewBox="0 0 177.003 161.154"><defs><style>.a{fill:#2d3446;}.b{fill:#d8006b;}</style></defs><g transform="translate(-1260 -1854)"><path class="a" d="M675.418,198.776a14.071,14.071,0,0,0-4.145.684l-23.261-40.3a14.518,14.518,0,1,0-22.806-13.215H577.848A14.505,14.505,0,1,0,554.963,159.1L531.7,199.459a14.237,14.237,0,0,0-4.174-.684,14.555,14.555,0,0,0,0,29.11,14.745,14.745,0,0,0,4.145-.664l23.318,40.335a14.521,14.521,0,1,0,22.861,13.158h47.358a14.5,14.5,0,1,0,22.806-13.185L671.3,227.221a14.527,14.527,0,1,0,4.115-28.446ZM639.611,135.49a11.832,11.832,0,1,1-11.821,11.818A11.83,11.83,0,0,1,639.611,135.49Zm-87.987,11.818a11.818,11.818,0,1,1,11.818,11.846A11.832,11.832,0,0,1,551.624,147.309Zm-35.915,66.036A11.842,11.842,0,0,1,527.525,201.5a11.56,11.56,0,0,1,4.327.833c12.063,4.692,8.657,22.831-4.327,22.831A11.83,11.83,0,0,1,515.709,213.344ZM563.443,291.2a11.832,11.832,0,1,1,11.818-11.846A11.847,11.847,0,0,1,563.443,291.2Zm87.984-11.846a11.818,11.818,0,1,1-5.912-10.233A11.844,11.844,0,0,1,651.427,279.353Zm-5.751-13.221a14.62,14.62,0,0,0-20.543,11.859H577.922c-.863-9.248-11.04-16.279-20.6-11.835l-23.073-39.913c10.459-5.457,10.184-20.462.022-25.8l23.021-39.932c9.457,4.477,19.759-2.489,20.628-11.843H625.13c.88,9.471,11.135,16.222,20.543,11.889L668.7,200.442c-10.509,5.452-10.225,20.464.025,25.8Zm29.742-40.969c-15.838,0-15.527-23.664,0-23.664a11.832,11.832,0,1,1,0,23.664Z" transform="translate(747.014 1721.233)"/><path class="a" d="M587.274,196.894c-6.421-2.494-5.008-10.067-5.138-10.34a26.154,26.154,0,0,0,5.983-21.946l.177.027c-.46-1.021-1.634-11.159-10.778-16.622-13.708-8.257-29.431,4.4-29.3,20.181-.008,1.383,0,1.018,0,1.912l.019-.005a25.708,25.708,0,0,0,6.353,16.429c-.131.272,1.353,10.917-8.006,10.917a15.837,15.837,0,0,0-15.819,15.819v11.769a1.383,1.383,0,0,0,.109.534c.673,1.609-2.165.479,73.769.836,2.445,0,.918-3.573,1.362-13.131a15.733,15.733,0,0,0-4.651-11.189C595.691,196.368,590.313,198.068,587.274,196.894Zm-7.861-7.772a10.713,10.713,0,0,0,.25,2.581v1.313a11.163,11.163,0,0,1-22.327,0v-3.908A17.649,17.649,0,0,0,579.413,189.122Zm-25.167,7.821c.253-.261.5-.531.722-.811,3.262,14.168,23.441,14.318,27,.289,5.337,6.274,10.974,1.1,17.461,7.589,5.71,5.708,3.251,12.27,3.837,19.664H533.49v-10.4a13.119,13.119,0,0,1,13.1-13.1,11.98,11.98,0,0,0,7.655-3.23Zm24.7-11.012a13.681,13.681,0,0,1-1.269,1.07c-.226.174-.455.343-.686.5-11.826,8.167-26.041-2.829-26.066-18.25,10.835-3.469,15.712-8.463,17.621-11.135,3.894,3.5,13.177,5.405,16.731,6.026C586.877,172.021,584.777,180.523,578.944,185.931Zm5.55-24.7c-18.12-3.551-14.552-7.584-16.2-8.8l-1.174,2.8c-.027.068-2.93,6.663-16,11.116C553.508,145.465,577.708,141.141,584.494,161.232Z" transform="translate(777.648 1743.021)"/><rect class="b" width="9.662" height="2.723" transform="matrix(0.59, -0.808, 0.808, 0.59, 1364.353, 1892.472)"/><rect class="b" width="2.723" height="9.662" transform="translate(1320.902 1886.276) rotate(-36.156)"/><rect class="b" width="9.662" height="2.723" transform="matrix(0.59, -0.808, 0.808, 0.59, 1320.904, 1983.913)"/><rect class="b" width="2.723" height="9.662" transform="translate(1364.353 1977.717) rotate(-36.156)"/><rect class="b" width="9.968" height="2.723" transform="translate(1388.66 1938.418)"/><rect class="b" width="9.968" height="2.723" transform="translate(1295.857 1938.418)"/></g></svg>