<svg xmlns="http://www.w3.org/2000/svg" width="177.139" height="175.454" viewBox="0 0 177.139 175.454"><defs><style>.a{fill:#2d3446;}.b{fill:#d8006b;}</style></defs><g transform="translate(-780.001 -1840)"><path class="a" d="M351.458,220.161h98.98v-47.8h-98.98Zm2.723-45.079h93.534v42.355H354.181Z" transform="translate(449.549 1784.411)"/><path class="a" d="M419.536,174.588v-.76h-1.362v.749a5,5,0,0,0-4.286,4.289h-16.9v-5.038h-1.362v5.038H374.444v-5.038h-1.362v5.038H354.154v1.362h18.928v7.965a4.754,4.754,0,0,0-4.047,4.044H354.154V193.6h14.885a4.635,4.635,0,0,0,.939,2.206l-6.35,6.495a4.926,4.926,0,0,0-7.853,3.309h-1.62v1.362h1.626a4.917,4.917,0,0,0,4.883,4.3,5.023,5.023,0,0,0,4.932-4.3h7.486v6.672h1.362v-6.672h17.251a4.656,4.656,0,0,0,3.935,3.938v2.734h1.362V210.9a4.707,4.707,0,0,0,3.935-3.927h17.251v6.672h1.362v-6.672h16.856v-1.362H419.536V193.6h18.926v-1.362H419.536v-7.725a5.06,5.06,0,0,0,4.289-4.283h14.637v-1.362H423.825A5.063,5.063,0,0,0,419.536,174.588Zm-5.642,5.64a4.93,4.93,0,0,0,1.242,2.671l-7.867,9.338h-10.28V180.227Zm-15.176,22.161a4.428,4.428,0,0,0-1.729-.656V193.6h9.133Zm-6.015.964-14.566-8.619a4.561,4.561,0,0,0,.319-1.136h17.172v8.093A4.494,4.494,0,0,0,392.7,203.352Zm2.925-23.125v12.009H378.488a4.723,4.723,0,0,0-4.044-4.036v-7.973Zm-21.872,9.259a3.42,3.42,0,0,1,3.437,3.431,3.29,3.29,0,0,1-.5,1.751,3.417,3.417,0,0,1-2.925,1.68h-.03a3.194,3.194,0,0,1-2.366-1.016,3.312,3.312,0,0,1-1.038-2.443A3.413,3.413,0,0,1,373.755,189.486Zm-13.093,20.423a3.622,3.622,0,0,1,0-7.244,3.663,3.663,0,0,1,2.56,1.043,3.461,3.461,0,0,1,1.089,2.571A3.674,3.674,0,0,1,360.662,209.909Zm4.945-4.3a4.816,4.816,0,0,0-1-2.366l6.339-6.481a4.544,4.544,0,0,0,2.135.888v7.96Zm8.837-7.987a4.72,4.72,0,0,0,2.993-1.718l14.58,8.627a4.245,4.245,0,0,0-.3,1.078H374.441ZM396.3,209.61l.008.681-.027-.681a3.312,3.312,0,0,1-3.295-3.322,3.154,3.154,0,0,1,.485-1.71,3.216,3.216,0,0,1,2.838-1.612,3.429,3.429,0,0,1,3.322,3.322A3.355,3.355,0,0,1,396.3,209.61Zm21.875-4H400.918a4.413,4.413,0,0,0-1.125-2.383L407.9,193.6h10.272Zm-9.125-13.371,7.118-8.447a4.855,4.855,0,0,0,2.007.738v7.709Zm9.8-9.014.008.681-.027-.681a3.545,3.545,0,0,1-2.342-.877,3.62,3.62,0,0,1-1.307-2.8,3.676,3.676,0,0,1,7.352,0A3.714,3.714,0,0,1,418.847,183.223Z" transform="translate(454.195 1786.943)"/><path class="a" d="M496.481,163.634c1.544-16.589-16.649-27.994-30.842-19.568a29,29,0,0,0-53.67,19.726,24.009,24.009,0,0,0-24.642,14.514H350.854a7.129,7.129,0,0,0-7.11,7.132V297.822a7.117,7.117,0,0,0,7.11,7.11H477.368a7.117,7.117,0,0,0,7.107-7.11V211.58H496.92a23.975,23.975,0,1,0-.438-47.946Zm-150.014,21.8a4.4,4.4,0,0,1,4.384-4.409H386.32a24.466,24.466,0,0,0,1.108,16.2H346.467ZM481.752,297.822a4.391,4.391,0,0,1-4.384,4.387H350.854a4.391,4.391,0,0,1-4.387-4.387V199.952h42.377a24.226,24.226,0,0,0,20.527,11.628h72.381Zm15.168-88.965H409.371a21.236,21.236,0,1,1,4.1-42.067l2.11.4-.534-2.08A26.285,26.285,0,0,1,440.442,132.2c17.9,0,23.947,15.546,24.2,15.821a18.477,18.477,0,0,1,11.315-4.057,17.881,17.881,0,0,1,17.616,20.886l-.321,1.751c2.059-.172,2.832-.253,3.674-.253a21.254,21.254,0,0,1,0,42.508Z" transform="translate(436.257 1710.522)"/><path class="b" d="M378.33,141.22h-2.723v6.112H372.9v2.723h2.707v27.568h2.723V150.055h2.708v-2.723H378.33Z" transform="translate(486.495 1730.754)"/><path class="b" d="M384.679,141.22h-2.723v28.147h-2.708v2.723h2.708v5.533h2.723V172.09h2.709v-2.723h-2.709Z" transform="translate(497.434 1730.754)"/><path class="b" d="M391.028,141.22H388.3v10.928H385.6v2.723H388.3v22.752h2.723V154.871h2.709v-2.723h-2.709Z" transform="translate(508.374 1730.754)"/><path class="b" d="M397.376,141.22h-2.723v18.49h-2.708v2.723h2.708v15.19h2.723v-15.19h2.707V159.71h-2.707Z" transform="translate(519.313 1730.754)"/><rect class="a" width="52.138" height="2.723" transform="translate(802.369 1948.454)"/><rect class="a" width="52.138" height="2.723" transform="translate(802.369 1939.852)"/><rect class="a" width="82.021" height="2.723" transform="translate(802.369 1931.251)"/></g></svg>