<?xml version="1.0" encoding="utf-8"?>
<!-- Generator: Adobe Illustrator 24.0.2, SVG Export Plug-In . SVG Version: 6.00 Build 0)  -->
<svg version="1.1" id="Layer_1" xmlns="http://www.w3.org/2000/svg" xmlns:xlink="http://www.w3.org/1999/xlink" x="0px" y="0px"
	 viewBox="0 0 1346.9 243.4" style="enable-background:new 0 0 1346.9 243.4;" xml:space="preserve">
<style type="text/css">
	.st0{clip-path:url(#SVGID_2_);fill:#E6007E;}
	.st1{clip-path:url(#SVGID_2_);}
</style>
<g>
	<defs>
		<rect id="SVGID_1_" x="11.6" y="31.7" width="1325.4" height="196.3"/>
	</defs>
	<clipPath id="SVGID_2_">
		<use xlink:href="#SVGID_1_"  style="overflow:visible;"/>
	</clipPath>
	<path class="st0" d="M1274.6,140.9c1.2,2.1,2.7,3.7,4.6,5c1.9,1.3,4,2.2,6.4,2.9c2.4,0.6,4.9,0.9,7.6,0.9c1.9,0,3.8-0.2,5.9-0.7
		c2.1-0.4,3.9-1.1,5.6-2.1c1.7-0.9,3.1-2.2,4.2-3.7c1.1-1.6,1.7-3.5,1.7-5.9c0-4-2.7-7-7.9-8.9c-5.3-2-12.6-4-22.1-6
		c-3.9-0.9-7.6-1.9-11.3-3.1c-3.7-1.2-6.9-2.7-9.8-4.7c-2.9-1.9-5.2-4.3-6.9-7.3c-1.7-2.9-2.6-6.5-2.6-10.7c0-6.2,1.2-11.3,3.6-15.3
		c2.4-4,5.6-7.1,9.6-9.4c4-2.3,8.4-3.9,13.4-4.8c5-0.9,10.1-1.4,15.3-1.4c5.2,0,10.3,0.5,15.2,1.5c4.9,1,9.3,2.7,13.1,5
		c3.9,2.4,7.1,5.5,9.6,9.4c2.5,3.9,4.1,8.9,4.6,14.8h-25.2c-0.4-5.1-2.3-8.5-5.8-10.4c-3.5-1.8-7.6-2.7-12.3-2.7
		c-1.5,0-3.1,0.1-4.8,0.3c-1.8,0.2-3.3,0.6-4.8,1.2c-1.4,0.6-2.6,1.5-3.6,2.7c-1,1.2-1.5,2.8-1.5,4.7c0,2.4,0.9,4.3,2.6,5.8
		c1.8,1.5,4,2.7,6.8,3.6c2.8,0.9,6,1.8,9.6,2.5c3.6,0.7,7.3,1.5,11,2.4c3.8,0.9,7.6,1.9,11.3,3.2c3.7,1.2,6.9,2.9,9.8,4.9
		c2.9,2.1,5.2,4.6,6.9,7.6c1.7,3,2.6,6.8,2.6,11.3c0,6.3-1.3,11.6-3.8,15.9c-2.6,4.3-5.9,7.7-10,10.3c-4.1,2.6-8.8,4.5-14.1,5.5
		c-5.3,1.1-10.7,1.6-16.1,1.6c-5.6,0-11.1-0.6-16.4-1.7c-5.3-1.1-10.1-3-14.3-5.6c-4.2-2.6-7.6-6-10.3-10.3
		c-2.7-4.3-4.1-9.7-4.4-16.1h25.2C1272.8,136.4,1273.4,138.8,1274.6,140.9 M1118.5,68.5v13.1h0.4c3.5-5,7.7-8.8,12.6-11.6
		c4.9-2.7,10.5-4.1,16.9-4.1c6.1,0,11.6,1.2,16.7,3.5c5,2.4,8.8,6.5,11.5,12.5c2.9-4.2,6.7-8,11.7-11.2c4.9-3.2,10.7-4.9,17.4-4.9
		c5.1,0,9.8,0.6,14.2,1.9c4.4,1.3,8.1,3.2,11.2,6c3.1,2.7,5.5,6.3,7.3,10.7c1.7,4.4,2.6,9.7,2.6,15.9v64.5h-26.5v-54.6
		c0-3.2-0.1-6.3-0.4-9.1c-0.3-2.9-0.9-5.3-2-7.5c-1.1-2.1-2.8-3.8-4.9-5c-2.2-1.2-5.1-1.9-8.9-1.9c-3.7,0-6.7,0.7-9,2.1
		c-2.3,1.4-4.1,3.3-5.4,5.6c-1.3,2.3-2.2,4.9-2.6,7.8c-0.4,2.9-0.7,5.9-0.7,8.9v53.7h-26.5v-54.1c0-2.9-0.1-5.7-0.2-8.5
		c-0.1-2.8-0.6-5.4-1.6-7.7c-0.9-2.4-2.5-4.3-4.7-5.7c-2.2-1.4-5.4-2.1-9.6-2.1c-1.2,0-2.9,0.3-4.9,0.8c-2.1,0.6-4,1.6-6,3.2
		c-1.9,1.6-3.6,3.8-4.9,6.7c-1.4,2.9-2.1,6.7-2.1,11.5v55.9h-26.5V68.5H1118.5z M1023.4,141.7c4,3.9,9.7,5.8,17.1,5.8
		c5.3,0,9.9-1.3,13.8-4c3.9-2.7,6.2-5.5,7.1-8.5h23.3c-3.7,11.6-9.4,19.8-17.2,24.8c-7.7,5-17,7.5-28,7.5c-7.6,0-14.4-1.2-20.5-3.6
		c-6.1-2.4-11.3-5.9-15.5-10.4c-4.2-4.5-7.5-9.8-9.8-16c-2.3-6.2-3.4-13.1-3.4-20.5c0-7.2,1.2-13.9,3.5-20.1
		c2.4-6.2,5.7-11.6,10.1-16.1c4.3-4.5,9.5-8.1,15.6-10.7c6-2.6,12.7-3.9,20-3.9c8.2,0,15.4,1.6,21.4,4.7c6.1,3.2,11.1,7.4,15,12.8
		c3.9,5.4,6.7,11.4,8.5,18.3c1.7,6.8,2.4,14,1.9,21.4h-69.5C1017.3,131.7,1019.5,137.9,1023.4,141.7 M1053.3,91
		c-3.2-3.5-8-5.2-14.4-5.2c-4.2,0-7.7,0.7-10.5,2.2c-2.8,1.4-5,3.2-6.7,5.3c-1.7,2.1-2.9,4.4-3.5,6.7c-0.7,2.4-1.1,4.5-1.2,6.3h43.1
		C1058.7,99.6,1056.5,94.5,1053.3,91 M991.7,68.5v17.7h-19.4v47.7c0,4.5,0.8,7.5,2.2,9c1.5,1.5,4.5,2.2,8.9,2.2
		c1.5,0,2.9-0.1,4.3-0.2c1.4-0.1,2.7-0.3,3.9-0.6v20.5c-2.2,0.4-4.7,0.6-7.5,0.7c-2.7,0.1-5.4,0.2-8,0.2c-4.1,0-8-0.3-11.6-0.8
		c-3.7-0.6-6.9-1.7-9.7-3.3c-2.8-1.6-5-3.9-6.6-6.9c-1.6-3-2.4-6.9-2.4-11.7V86.2h-16V68.5h16V39.6h26.5v28.9H991.7z M870.3,140.9
		c1.2,2.1,2.7,3.7,4.6,5c1.9,1.3,4,2.2,6.4,2.9c2.4,0.6,4.9,0.9,7.5,0.9c1.9,0,3.8-0.2,5.9-0.7c2.1-0.4,3.9-1.1,5.6-2.1
		c1.7-0.9,3.1-2.2,4.2-3.7c1.1-1.6,1.7-3.5,1.7-5.9c0-4-2.6-7-7.9-8.9c-5.3-2-12.6-4-22.1-6c-3.9-0.9-7.6-1.9-11.3-3.1
		c-3.7-1.2-6.9-2.7-9.8-4.7c-2.9-1.9-5.2-4.3-6.9-7.3c-1.7-2.9-2.6-6.5-2.6-10.7c0-6.2,1.2-11.3,3.6-15.3c2.4-4,5.6-7.1,9.6-9.4
		c4-2.3,8.5-3.9,13.4-4.8c5-0.9,10.1-1.4,15.3-1.4c5.2,0,10.3,0.5,15.2,1.5c4.9,1,9.3,2.7,13.1,5c3.9,2.4,7.1,5.5,9.6,9.4
		c2.6,3.9,4.1,8.9,4.6,14.8h-25.2c-0.4-5.1-2.3-8.5-5.8-10.4c-3.5-1.8-7.6-2.7-12.3-2.7c-1.5,0-3.1,0.1-4.9,0.3
		c-1.7,0.2-3.3,0.6-4.8,1.2c-1.4,0.6-2.6,1.5-3.6,2.7c-1,1.2-1.5,2.8-1.5,4.7c0,2.4,0.9,4.3,2.6,5.8c1.7,1.5,4,2.7,6.8,3.6
		c2.8,0.9,6,1.8,9.6,2.5c3.6,0.7,7.3,1.5,11,2.4c3.9,0.9,7.6,1.9,11.3,3.2c3.7,1.2,6.9,2.9,9.8,4.9c2.9,2.1,5.2,4.6,6.9,7.6
		c1.7,3,2.6,6.8,2.6,11.3c0,6.3-1.3,11.6-3.8,15.9c-2.6,4.3-5.9,7.7-10,10.3c-4.1,2.6-8.8,4.5-14.1,5.5c-5.3,1.1-10.7,1.6-16.1,1.6
		c-5.6,0-11.1-0.6-16.4-1.7c-5.3-1.1-10.1-3-14.3-5.6c-4.2-2.6-7.6-6-10.2-10.3c-2.7-4.3-4.1-9.7-4.4-16.1h25.2
		C868.5,136.4,869.1,138.8,870.3,140.9 M796.2,193.6c-5.1,3.4-12.2,5-21.2,5c-2.7,0-5.4-0.1-8.1-0.3c-2.7-0.2-5.4-0.4-8.1-0.7v-21.8
		c2.5,0.2,5,0.5,7.6,0.8c2.6,0.2,5.2,0.3,7.8,0.2c3.5-0.4,6.1-1.7,7.7-4.1c1.7-2.4,2.5-5,2.5-7.8c0-2.1-0.4-4.1-1.1-6l-33.7-90.4
		h28.1l21.8,66h0.4l21.1-66h27.4l-40.3,108.3C805.3,184.6,801.3,190.2,796.2,193.6 M692.1,140.9c1.2,2.1,2.7,3.7,4.6,5
		c1.9,1.3,4,2.2,6.4,2.9c2.4,0.6,4.9,0.9,7.6,0.9c1.9,0,3.8-0.2,5.9-0.7c2.1-0.4,3.9-1.1,5.6-2.1c1.7-0.9,3.1-2.2,4.2-3.7
		c1.1-1.6,1.7-3.5,1.7-5.9c0-4-2.6-7-7.9-8.9c-5.3-2-12.6-4-22.1-6c-3.9-0.9-7.6-1.9-11.3-3.1c-3.7-1.2-6.9-2.7-9.8-4.7
		c-2.9-1.9-5.2-4.3-6.9-7.3c-1.7-2.9-2.6-6.5-2.6-10.7c0-6.2,1.2-11.3,3.6-15.3c2.4-4,5.6-7.1,9.6-9.4c4-2.3,8.5-3.9,13.4-4.8
		c5-0.9,10.1-1.4,15.3-1.4c5.2,0,10.3,0.5,15.2,1.5c4.9,1,9.3,2.7,13.2,5c3.8,2.4,7.1,5.5,9.6,9.4c2.5,3.9,4.1,8.9,4.6,14.8h-25.2
		c-0.4-5.1-2.3-8.5-5.8-10.4c-3.5-1.8-7.6-2.7-12.3-2.7c-1.5,0-3.1,0.1-4.8,0.3c-1.7,0.2-3.3,0.6-4.8,1.2c-1.4,0.6-2.6,1.5-3.6,2.7
		c-1,1.2-1.5,2.8-1.5,4.7c0,2.4,0.9,4.3,2.6,5.8c1.7,1.5,4,2.7,6.8,3.6c2.8,0.9,6,1.8,9.6,2.5c3.6,0.7,7.3,1.5,11,2.4
		c3.8,0.9,7.6,1.9,11.3,3.2c3.7,1.2,6.9,2.9,9.8,4.9c2.9,2.1,5.2,4.6,6.9,7.6c1.7,3,2.6,6.8,2.6,11.3c0,6.3-1.3,11.6-3.8,15.9
		c-2.6,4.3-5.9,7.7-10,10.3c-4.1,2.6-8.8,4.5-14.1,5.5c-5.3,1.1-10.7,1.6-16.1,1.6c-5.6,0-11.1-0.6-16.4-1.7
		c-5.3-1.1-10.1-3-14.3-5.6c-4.2-2.6-7.6-6-10.2-10.3c-2.7-4.3-4.1-9.7-4.4-16.1h25.2C690.3,136.4,690.9,138.8,692.1,140.9"/>
	<path class="st1" d="M578.5,141.7c4,3.9,9.7,5.8,17.2,5.8c5.3,0,9.9-1.3,13.8-4c3.8-2.7,6.2-5.5,7.1-8.5h23.3
		c-3.7,11.6-9.4,19.8-17.2,24.8c-7.7,5-17,7.5-28,7.5c-7.6,0-14.4-1.2-20.5-3.6s-11.2-5.9-15.5-10.4c-4.2-4.5-7.5-9.8-9.8-16
		c-2.3-6.2-3.4-13.1-3.4-20.5c0-7.2,1.2-13.9,3.5-20.1c2.4-6.2,5.7-11.6,10.1-16.1c4.3-4.5,9.5-8.1,15.6-10.7c6-2.6,12.7-3.9,20-3.9
		c8.2,0,15.4,1.6,21.4,4.7c6.1,3.2,11.1,7.4,15,12.8c3.9,5.3,6.7,11.4,8.5,18.3c1.7,6.8,2.4,14,1.9,21.4h-69.5
		C572.3,131.7,574.5,137.9,578.5,141.7 M608.4,91c-3.2-3.5-8-5.2-14.4-5.2c-4.2,0-7.7,0.7-10.5,2.1c-2.8,1.4-5,3.2-6.7,5.3
		c-1.7,2.1-2.9,4.4-3.5,6.7c-0.7,2.4-1.1,4.5-1.2,6.3H615C613.8,99.6,611.6,94.5,608.4,91 M538.6,164.9h-26.5V31.7h26.5V164.9z
		 M433.3,31.7v48.5h0.4c3.2-5,7.6-8.6,13.1-10.9c5.5-2.3,11.3-3.4,17.2-3.4c4.8,0,9.6,1,14.4,3c4.7,2,9,5,12.8,9.1
		c3.8,4.1,6.9,9.4,9.2,15.8c2.4,6.4,3.5,14,3.5,22.8c0,8.8-1.2,16.4-3.5,22.9c-2.4,6.4-5.4,11.6-9.2,15.7c-3.8,4.1-8.1,7.2-12.8,9.1
		c-4.7,2-9.5,3-14.4,3c-7.1,0-13.4-1.1-19-3.4c-5.6-2.2-9.8-6-12.7-11.4H432v12.3h-25.2V31.7H433.3z M476.1,105
		c-0.9-3.7-2.2-7-4.1-9.9c-1.9-2.8-4.2-5.1-7-6.8c-2.8-1.7-6.2-2.5-10.2-2.5c-3.9,0-7.2,0.8-10.1,2.5c-2.9,1.7-5.2,3.9-7.1,6.8
		c-1.9,2.9-3.2,6.2-4.1,9.9c-0.9,3.7-1.3,7.7-1.3,11.8c0,4,0.4,7.8,1.3,11.6c0.9,3.7,2.2,7,4.1,9.9c1.9,2.9,4.2,5.1,7.1,6.8
		c2.9,1.7,6.2,2.5,10.1,2.5c4,0,7.4-0.8,10.2-2.5c2.8-1.7,5.1-3.9,7-6.8c1.9-2.9,3.2-6.2,4.1-9.9c0.9-3.7,1.3-7.6,1.3-11.6
		C477.4,112.7,477,108.7,476.1,105 M395.2,164.9h-26.5V68.5h26.5V164.9z M368.8,31.7h26.5v21.8h-26.5V31.7z M299.5,140.9
		c1.2,2,2.7,3.7,4.6,5c1.9,1.3,4,2.3,6.4,2.9c2.4,0.6,4.9,0.9,7.5,0.9c1.9,0,3.8-0.2,5.9-0.7c2.1-0.4,3.9-1.1,5.6-2.1
		c1.7-0.9,3.1-2.2,4.2-3.7c1.1-1.6,1.7-3.5,1.7-5.9c0-4-2.6-7-7.9-9c-5.3-2-12.6-4-22.1-6c-3.9-0.9-7.6-1.9-11.3-3.1
		c-3.7-1.2-6.9-2.7-9.8-4.7c-2.9-1.9-5.2-4.3-6.9-7.3c-1.7-2.9-2.6-6.5-2.6-10.7c0-6.2,1.2-11.3,3.6-15.3c2.4-4,5.6-7.1,9.6-9.4
		c4-2.3,8.5-3.9,13.4-4.8c5-0.9,10.1-1.4,15.3-1.4c5.2,0,10.3,0.5,15.2,1.5c4.9,1,9.3,2.7,13.1,5c3.9,2.4,7.1,5.5,9.6,9.4
		c2.6,3.9,4.1,8.9,4.6,14.8h-25.2c-0.4-5.1-2.3-8.5-5.8-10.3c-3.5-1.8-7.6-2.7-12.3-2.7c-1.5,0-3.1,0.1-4.8,0.3
		c-1.7,0.2-3.3,0.6-4.8,1.2c-1.4,0.6-2.6,1.5-3.6,2.7c-1,1.2-1.5,2.8-1.5,4.7c0,2.4,0.9,4.3,2.6,5.8c1.7,1.5,4,2.7,6.8,3.6
		c2.8,0.9,6,1.8,9.6,2.5c3.6,0.7,7.3,1.5,11,2.4c3.9,0.9,7.6,1.9,11.3,3.2c3.7,1.2,6.9,2.9,9.8,4.9c2.9,2.1,5.2,4.6,6.9,7.7
		c1.7,3,2.6,6.8,2.6,11.3c0,6.3-1.3,11.6-3.8,15.9c-2.6,4.3-5.9,7.7-10,10.4c-4.1,2.6-8.8,4.4-14.1,5.5c-5.3,1-10.7,1.6-16.1,1.6
		c-5.6,0-11.1-0.6-16.4-1.7c-5.3-1.1-10.1-3-14.3-5.6c-4.2-2.6-7.6-6.1-10.2-10.3c-2.7-4.3-4.1-9.7-4.4-16.1h25.2
		C297.7,136.4,298.3,138.8,299.5,140.9 M265.7,164.9h-26.5V68.5h26.5V164.9z M239.2,31.7h26.5v21.8h-26.5V31.7z M174.7,164.9
		l-33-96.4h27.8l20.3,65.8h0.4l20.3-65.8h26.3l-32.6,96.4H174.7z M74.8,68.5v13.4h0.6c3.4-5.6,7.7-9.7,13-12.2
		c5.3-2.5,10.8-3.8,16.4-3.8c7.1,0,12.9,1,17.4,2.9c4.5,1.9,8.1,4.6,10.7,8c2.6,3.4,4.4,7.6,5.5,12.5c1.1,4.9,1.6,10.3,1.6,16.3
		v59.3h-26.5v-54.4c0-8-1.2-13.9-3.7-17.8c-2.5-3.9-6.9-5.9-13.2-5.9c-7.2,0-12.4,2.2-15.7,6.4c-3.2,4.3-4.9,11.3-4.9,21.2v50.5
		H49.6V68.5H74.8z M38.1,164.9H11.6V68.5h26.5V164.9z M11.6,31.7h26.5v21.8H11.6V31.7z"/>
</g>
</svg>
